# Blender v2.70 (sub 0) OBJ File: 'roomv3 - Kopia.blend'
# www.blender.org
mtllib glass.mtl
o Plane.016_Plane.007
v -1.467412 2.282335 5.049575
v -1.467412 0.142334 5.049577
v -3.387412 2.282335 5.049577
v -3.387412 0.142334 5.049578
vn -0.000001 -0.000001 -1.000000
usemtl None
s off
f 2//1 4//1 3//1
f 1//1 2//1 3//1
o Plane.015_Plane.006
v 3.984176 3.369545 4.478693
v 3.984175 1.129545 4.478693
v 3.984176 3.369545 -4.701308
v 3.984175 1.129545 -4.701308
vn 1.000000 -0.000001 0.000000
usemtl None
s off
f 6//2 8//2 7//2
f 5//2 6//2 7//2
o Plane.014_Plane.015
v 20.972366 0.000000 20.972366
v -20.972366 0.000000 20.972366
v 20.972366 0.000000 -20.972366
v -20.972366 0.000000 -20.972366
vn 0.000000 1.000000 0.000000
usemtl BG
s off
f 12//3 10//3 9//3
f 11//3 12//3 9//3
o Plane.018_Plane.008
v 2.858511 2.282335 5.049575
v 2.858511 0.142334 5.049577
v 0.938511 2.282335 5.049577
v 0.938511 0.142334 5.049578
vn -0.000001 -0.000001 -1.000000
usemtl None
s off
f 14//4 16//4 15//4
f 13//4 14//4 15//4
