# Blender v2.70 (sub 0) OBJ File: 'polki.blend'
# www.blender.org
o Cube.004
v -0.093776 1.270195 -0.534298
v -0.093776 1.270195 -4.092010
v 0.906386 1.270195 -4.092010
v 0.906386 1.270195 -0.534298
v -0.093776 1.445892 -0.534298
v -0.093776 1.445892 -4.092010
v 0.906386 1.445892 -4.092010
v 0.906386 1.445892 -0.534298
vn -1.000000 0.000000 0.000000
vn 0.000000 0.000000 -1.000000
vn 1.000000 0.000000 0.000000
vn 0.000000 0.000000 1.000000
vn 0.000000 -1.000000 0.000000
vn 0.000000 1.000000 0.000000
s off
f 6//1 2//1 1//1
f 7//2 3//2 2//2
f 8//3 4//3 3//3
f 5//4 1//4 4//4
f 2//5 3//5 4//5
f 7//6 6//6 5//6
f 5//1 6//1 1//1
f 6//2 7//2 2//2
f 7//3 8//3 3//3
f 8//4 5//4 4//4
f 1//5 2//5 4//5
f 8//6 7//6 5//6
o Cube.003
v -1.305227 1.256899 -0.051174
v -0.351964 1.256899 -0.039304
v -0.364416 1.256899 0.960709
v -1.317679 1.256899 0.948839
v -1.305227 1.432595 -0.051174
v -0.351964 1.432595 -0.039304
v -0.364416 1.432595 0.960709
v -1.317679 1.432595 0.948839
vn 0.012451 0.000000 -0.999922
vn 0.999922 0.000000 0.012451
vn -0.012450 0.000000 0.999922
vn -0.999922 0.000000 -0.012451
vn 0.000000 -1.000000 0.000000
vn 0.000000 1.000000 0.000000
vn -0.012451 0.000000 0.999922
s off
f 14//7 10//7 9//7
f 15//8 11//8 10//8
f 16//9 12//9 11//9
f 13//10 9//10 12//10
f 10//11 11//11 12//11
f 15//12 14//12 13//12
f 13//7 14//7 9//7
f 14//8 15//8 10//8
f 15//13 16//13 11//13
f 16//10 13//10 12//10
f 9//11 10//11 12//11
f 16//12 15//12 13//12
o Cube.002
v -3.949350 1.242471 3.707525
v -3.949350 1.242471 0.149813
v -2.949188 1.242471 0.149813
v -2.949188 1.242471 3.707525
v -3.949350 1.418167 3.707525
v -3.949350 1.418167 0.149813
v -2.949188 1.418167 0.149813
v -2.949188 1.418167 3.707525
vn -1.000000 0.000000 0.000000
vn 0.000000 0.000000 -1.000000
vn 1.000000 0.000000 0.000000
vn 0.000000 0.000000 1.000000
vn 0.000000 -1.000000 0.000000
vn 0.000000 1.000000 0.000000
s off
f 22//14 18//14 17//14
f 23//15 19//15 18//15
f 24//16 20//16 19//16
f 21//17 17//17 20//17
f 18//18 19//18 20//18
f 23//19 22//19 21//19
f 21//14 22//14 17//14
f 22//15 23//15 18//15
f 23//16 24//16 19//16
f 24//17 21//17 20//17
f 17//18 18//18 20//18
f 24//19 23//19 21//19
o Cube.001
v -3.936746 2.212432 4.621239
v -3.936746 2.212432 0.150419
v -2.936584 2.212432 0.150419
v -2.936584 2.212432 4.621239
v -3.936746 2.388128 4.621239
v -3.936746 2.388128 0.150419
v -2.936584 2.388128 0.150419
v -2.936584 2.388128 4.621239
vn -1.000000 0.000000 0.000000
vn 0.000000 0.000000 -1.000000
vn 1.000000 0.000000 0.000000
vn 0.000000 0.000000 1.000000
vn 0.000000 -1.000000 0.000000
vn 0.000000 1.000000 0.000000
s off
f 30//20 26//20 25//20
f 31//21 27//21 26//21
f 32//22 28//22 27//22
f 29//23 25//23 28//23
f 26//24 27//24 28//24
f 31//25 30//25 29//25
f 29//20 30//20 25//20
f 30//21 31//21 26//21
f 31//22 32//22 27//22
f 32//23 29//23 28//23
f 25//24 26//24 28//24
f 32//25 31//25 29//25
o Plane.014_Plane.015
v 20.972366 0.000000 20.972366
v -20.972366 0.000000 20.972366
v 20.972366 0.000000 -20.972366
v -20.972366 0.000000 -20.972366
vn 0.000000 1.000000 0.000000
s off
f 36//26 34//26 33//26
f 35//26 36//26 33//26
